<?xml version="1.0" standalone="no"?>
<!DOCTYPE svg PUBLIC "-//W3C//DTD SVG 20010904//EN"
 "http://www.w3.org/TR/2001/REC-SVG-20010904/DTD/svg10.dtd">
<svg version="1.0" xmlns="http://www.w3.org/2000/svg"
 width="512.000000pt" height="512.000000pt" viewBox="0 0 512.000000 512.000000"
 preserveAspectRatio="xMidYMid meet">
<metadata>
Created by potrace 1.14, written by Peter Selinger 2001-2017
</metadata>
<g transform="translate(0.000000,512.000000) scale(0.100000,-0.100000)"
fill="#000000" stroke="none">
<path d="M547 5113 c-1 -1 -34 -3 -72 -4 -39 -1 -90 -8 -115 -14 -161 -43
-301 -188 -341 -355 -10 -44 -13 -463 -13 -2185 -1 -2322 -4 -2166 57 -2289
59 -120 206 -230 337 -251 24 -4 999 -8 2165 -7 1930 0 2126 1 2184 16 182 46
316 188 354 373 9 46 12 554 11 2181 -2 2112 -2 2122 -23 2189 -51 169 -191
298 -361 333 -40 8 -636 11 -2118 13 -1135 1 -2064 1 -2065 0z"/>
</g>
</svg>
